<?xml version="1.0" standalone="no"?>
<!DOCTYPE svg PUBLIC "-//W3C//DTD SVG 20010904//EN"
 "http://www.w3.org/TR/2001/REC-SVG-20010904/DTD/svg10.dtd">
<svg version="1.0" xmlns="http://www.w3.org/2000/svg"
 width="616.000000pt" height="616.000000pt" viewBox="0 0 616.000000 616.000000"
 preserveAspectRatio="xMidYMid meet">
<metadata>
Created by potrace 1.14, written by Peter Selinger 2001-2017
</metadata>
<g transform="translate(0.000000,616.000000) scale(0.100000,-0.100000)"
fill="#000000" stroke="none">
<path d="M3605 6153 c-188 -16 -401 -69 -560 -138 -130 -56 -194 -93 -455
-260 -118 -76 -433 -278 -700 -448 -267 -170 -531 -341 -587 -379 -551 -375
-817 -1062 -672 -1737 25 -116 79 -271 125 -363 l35 -69 -34 -57 c-170 -281
-245 -578 -234 -922 8 -263 56 -464 167 -696 227 -478 644 -836 1159 -995 458
-142 947 -106 1352 99 132 66 1576 981 1720 1089 308 231 523 578 611 983 19
91 22 135 23 330 0 178 -4 243 -18 312 -28 138 -64 253 -119 382 -45 105 -49
122 -38 140 160 252 243 527 256 851 20 470 -165 936 -518 1301 -315 326 -744
530 -1203 574 -104 9 -222 11 -310 3z m348 -708 c447 -67 819 -398 934 -830
23 -87 26 -120 27 -260 0 -146 -2 -169 -27 -258 -15 -54 -32 -109 -37 -123
l-10 -24 -67 49 c-156 112 -331 203 -513 266 l-105 36 -1 77 c-1 132 -60 230
-176 292 -81 44 -184 52 -268 23 -66 -23 -1505 -939 -1558 -991 -54 -54 -77
-114 -77 -202 0 -128 61 -228 177 -291 58 -32 70 -34 153 -34 72 0 100 5 139
22 26 13 184 109 350 215 305 194 414 251 556 291 63 17 103 21 260 21 168 0
194 -3 282 -26 208 -56 376 -153 524 -302 226 -227 327 -467 327 -776 -1 -162
-23 -275 -81 -402 -67 -148 -194 -306 -317 -393 -152 -108 -1540 -983 -1620
-1021 -386 -183 -855 -116 -1194 171 -277 235 -424 584 -390 928 8 89 36 222
58 280 l11 27 67 -49 c156 -112 331 -203 513 -266 l105 -36 0 -77 c1 -99 34
-177 106 -244 93 -88 240 -117 354 -71 61 25 1487 933 1533 976 18 18 45 57
60 87 35 72 37 180 5 252 -75 167 -284 250 -443 176 -30 -14 -187 -109 -348
-211 -325 -207 -352 -223 -467 -261 -133 -45 -242 -59 -400 -53 -308 11 -554
120 -770 341 -159 163 -254 337 -297 545 -26 127 -21 355 12 476 47 178 177
383 315 497 57 47 1470 953 1616 1036 192 109 446 153 682 117z"/>
</g>
</svg>
